<?xml version="1.0" encoding="UTF-8"?>
<svg id="Layer_1" xmlns="http://www.w3.org/2000/svg" xmlns:xlink="http://www.w3.org/1999/xlink" viewBox="0 0 1024 1024">
  <defs>
    <style>
      .cls-1 {
        fill: none;
      }

      .cls-2 {
        clip-path: url(#clippath-1);
      }

      .cls-3 {
        fill: #4044cf;
      }

      .cls-4 {
        clip-path: url(#clippath-2);
      }

      .cls-5 {
        fill: #4142b6;
      }

      .cls-6 {
        clip-path: url(#clippath);
      }
    </style>
    <clipPath id="clippath">
      <rect class="cls-1" x="-265.6" y="-34" width="1324.35" height="1107.02"/>
    </clipPath>
    <clipPath id="clippath-1">
      <rect class="cls-1" x="-211.6" y="-34" width="1324.35" height="1107.02"/>
    </clipPath>
    <clipPath id="clippath-2">
      <rect class="cls-1" x="-128.43" y="-34.27" width="1702.92" height="1107.02"/>
    </clipPath>
  </defs>
  <g class="cls-6">
    <g>
      <g id="_x3C_Grid_Repeat_x3E_">
        <polygon class="cls-5" points="-521.46 -34 -9.79 990 117.4 990 -393.96 -34 -521.46 -34"/>
      </g>
      <g id="_x3C_Grid_Repeat_x3E_-2" data-name="_x3C_Grid_Repeat_x3E_">
        <polygon class="cls-5" points="-265.6 -34 246.06 990 373.25 990 -138.1 -34 -265.6 -34"/>
      </g>
      <g id="_x3C_Grid_Repeat_x3E_-3" data-name="_x3C_Grid_Repeat_x3E_">
        <polygon class="cls-5" points="-9.75 -34 501.91 990 629.1 990 117.75 -34 -9.75 -34"/>
      </g>
      <g id="_x3C_Grid_Repeat_x3E_-4" data-name="_x3C_Grid_Repeat_x3E_">
        <polygon class="cls-5" points="246.1 -34 757.77 990 884.95 990 373.6 -34 246.1 -34"/>
      </g>
      <g id="_x3C_Grid_Repeat_x3E_-5" data-name="_x3C_Grid_Repeat_x3E_">
        <polygon class="cls-5" points="501.95 -34 1013.62 990 1140.8 990 629.45 -34 501.95 -34"/>
      </g>
      <g id="_x3C_Grid_Repeat_x3E_-6" data-name="_x3C_Grid_Repeat_x3E_">
        <polygon class="cls-5" points="757.8 -34 1269.47 990 1396.66 990 885.3 -34 757.8 -34"/>
      </g>
      <g id="_x3C_Grid_Repeat_x3E_-7" data-name="_x3C_Grid_Repeat_x3E_">
        <polygon class="cls-5" points="1013.66 -34 1525.32 990 1652.51 990 1141.16 -34 1013.66 -34"/>
      </g>
      <g id="_x3C_Grid_Repeat_x3E_-8" data-name="_x3C_Grid_Repeat_x3E_">
        <polygon class="cls-5" points="-521.46 990 -9.79 2014 117.4 2014 -393.96 990 -521.46 990"/>
      </g>
      <g id="_x3C_Grid_Repeat_x3E_-9" data-name="_x3C_Grid_Repeat_x3E_">
        <polygon class="cls-5" points="-265.6 990 246.06 2014 373.25 2014 -138.1 990 -265.6 990"/>
      </g>
      <g id="_x3C_Grid_Repeat_x3E_-10" data-name="_x3C_Grid_Repeat_x3E_">
        <polygon class="cls-5" points="-9.75 990 501.91 2014 629.1 2014 117.75 990 -9.75 990"/>
      </g>
      <g id="_x3C_Grid_Repeat_x3E_-11" data-name="_x3C_Grid_Repeat_x3E_">
        <polygon class="cls-5" points="246.1 990 757.77 2014 884.95 2014 373.6 990 246.1 990"/>
      </g>
      <g id="_x3C_Grid_Repeat_x3E_-12" data-name="_x3C_Grid_Repeat_x3E_">
        <polygon class="cls-5" points="501.95 990 1013.62 2014 1140.8 2014 629.45 990 501.95 990"/>
      </g>
      <g id="_x3C_Grid_Repeat_x3E_-13" data-name="_x3C_Grid_Repeat_x3E_">
        <polygon class="cls-5" points="757.8 990 1269.47 2014 1396.66 2014 885.3 990 757.8 990"/>
      </g>
      <g id="_x3C_Grid_Repeat_x3E_-14" data-name="_x3C_Grid_Repeat_x3E_">
        <polygon class="cls-5" points="1013.66 990 1525.32 2014 1652.51 2014 1141.16 990 1013.66 990"/>
      </g>
    </g>
  </g>
  <g class="cls-2">
    <g>
      <g id="_x3C_Grid_Repeat_x3E_-15" data-name="_x3C_Grid_Repeat_x3E_">
        <polygon class="cls-5" points="-467.46 -34 44.21 990 171.4 990 -339.96 -34 -467.46 -34"/>
      </g>
      <g id="_x3C_Grid_Repeat_x3E_-16" data-name="_x3C_Grid_Repeat_x3E_">
        <polygon class="cls-5" points="-211.6 -34 300.06 990 427.25 990 -84.1 -34 -211.6 -34"/>
      </g>
      <g id="_x3C_Grid_Repeat_x3E_-17" data-name="_x3C_Grid_Repeat_x3E_">
        <polygon class="cls-5" points="44.25 -34 555.91 990 683.1 990 171.75 -34 44.25 -34"/>
      </g>
      <g id="_x3C_Grid_Repeat_x3E_-18" data-name="_x3C_Grid_Repeat_x3E_">
        <polygon class="cls-5" points="300.1 -34 811.77 990 938.95 990 427.6 -34 300.1 -34"/>
      </g>
      <g id="_x3C_Grid_Repeat_x3E_-19" data-name="_x3C_Grid_Repeat_x3E_">
        <polygon class="cls-5" points="555.95 -34 1067.62 990 1194.8 990 683.45 -34 555.95 -34"/>
      </g>
      <g id="_x3C_Grid_Repeat_x3E_-20" data-name="_x3C_Grid_Repeat_x3E_">
        <polygon class="cls-5" points="811.8 -34 1323.47 990 1450.66 990 939.3 -34 811.8 -34"/>
      </g>
      <g id="_x3C_Grid_Repeat_x3E_-21" data-name="_x3C_Grid_Repeat_x3E_">
        <polygon class="cls-5" points="-467.46 990 44.21 2014 171.4 2014 -339.96 990 -467.46 990"/>
      </g>
      <g id="_x3C_Grid_Repeat_x3E_-22" data-name="_x3C_Grid_Repeat_x3E_">
        <polygon class="cls-5" points="-211.6 990 300.06 2014 427.25 2014 -84.1 990 -211.6 990"/>
      </g>
      <g id="_x3C_Grid_Repeat_x3E_-23" data-name="_x3C_Grid_Repeat_x3E_">
        <polygon class="cls-5" points="44.25 990 555.91 2014 683.1 2014 171.75 990 44.25 990"/>
      </g>
      <g id="_x3C_Grid_Repeat_x3E_-24" data-name="_x3C_Grid_Repeat_x3E_">
        <polygon class="cls-5" points="300.1 990 811.77 2014 938.95 2014 427.6 990 300.1 990"/>
      </g>
      <g id="_x3C_Grid_Repeat_x3E_-25" data-name="_x3C_Grid_Repeat_x3E_">
        <polygon class="cls-5" points="555.95 990 1067.62 2014 1194.8 2014 683.45 990 555.95 990"/>
      </g>
      <g id="_x3C_Grid_Repeat_x3E_-26" data-name="_x3C_Grid_Repeat_x3E_">
        <polygon class="cls-5" points="811.8 990 1323.47 2014 1450.66 2014 939.3 990 811.8 990"/>
      </g>
    </g>
  </g>
  <g class="cls-4">
    <g>
      <g id="_x3C_Grid_Repeat_x3E_-27" data-name="_x3C_Grid_Repeat_x3E_">
        <polygon class="cls-3" points="-384.28 -34.27 127.39 989.73 254.57 989.73 -256.78 -34.27 -384.28 -34.27"/>
      </g>
      <g id="_x3C_Grid_Repeat_x3E_-28" data-name="_x3C_Grid_Repeat_x3E_">
        <polygon class="cls-3" points="-128.43 -34.27 383.24 989.73 510.42 989.73 -.93 -34.27 -128.43 -34.27"/>
      </g>
      <g id="_x3C_Grid_Repeat_x3E_-29" data-name="_x3C_Grid_Repeat_x3E_">
        <polygon class="cls-3" points="127.42 -34.27 639.09 989.73 766.28 989.73 254.92 -34.27 127.42 -34.27"/>
      </g>
      <g id="_x3C_Grid_Repeat_x3E_-30" data-name="_x3C_Grid_Repeat_x3E_">
        <polygon class="cls-3" points="383.28 -34.27 894.94 989.73 1022.13 989.73 510.78 -34.27 383.28 -34.27"/>
      </g>
      <g id="_x3C_Grid_Repeat_x3E_-31" data-name="_x3C_Grid_Repeat_x3E_">
        <polygon class="cls-3" points="639.13 -34.27 1150.79 989.73 1277.98 989.73 766.63 -34.27 639.13 -34.27"/>
      </g>
      <g id="_x3C_Grid_Repeat_x3E_-32" data-name="_x3C_Grid_Repeat_x3E_">
        <polygon class="cls-3" points="894.98 -34.27 1406.65 989.73 1533.83 989.73 1022.48 -34.27 894.98 -34.27"/>
      </g>
      <g id="_x3C_Grid_Repeat_x3E_-33" data-name="_x3C_Grid_Repeat_x3E_">
        <polygon class="cls-3" points="-384.28 989.73 127.39 2013.73 254.57 2013.73 -256.78 989.73 -384.28 989.73"/>
      </g>
      <g id="_x3C_Grid_Repeat_x3E_-34" data-name="_x3C_Grid_Repeat_x3E_">
        <polygon class="cls-3" points="-128.43 989.73 383.24 2013.73 510.42 2013.73 -.93 989.73 -128.43 989.73"/>
      </g>
      <g id="_x3C_Grid_Repeat_x3E_-35" data-name="_x3C_Grid_Repeat_x3E_">
        <polygon class="cls-3" points="127.42 989.73 639.09 2013.73 766.28 2013.73 254.92 989.73 127.42 989.73"/>
      </g>
      <g id="_x3C_Grid_Repeat_x3E_-36" data-name="_x3C_Grid_Repeat_x3E_">
        <polygon class="cls-3" points="383.28 989.73 894.94 2013.73 1022.13 2013.73 510.78 989.73 383.28 989.73"/>
      </g>
      <g id="_x3C_Grid_Repeat_x3E_-37" data-name="_x3C_Grid_Repeat_x3E_">
        <polygon class="cls-3" points="639.13 989.73 1150.79 2013.73 1277.98 2013.73 766.63 989.73 639.13 989.73"/>
      </g>
      <g id="_x3C_Grid_Repeat_x3E_-38" data-name="_x3C_Grid_Repeat_x3E_">
        <polygon class="cls-3" points="894.98 989.73 1406.65 2013.73 1533.83 2013.73 1022.48 989.73 894.98 989.73"/>
      </g>
    </g>
  </g>
</svg>