<?xml version="1.0" encoding="UTF-8"?>
<svg id="Layer_1" data-name="Layer 1" xmlns="http://www.w3.org/2000/svg" xmlns:xlink="http://www.w3.org/1999/xlink" viewBox="0 0 512 512">
  <defs>
    <style>
      .cls-1 {
        fill: none;
      }

      .cls-2 {
        fill: #3e58df;
      }

      .cls-3 {
        fill: #3c55cf;
      }

      .cls-4 {
        clip-path: url(#clippath);
      }
    </style>
    <clipPath id="clippath">
      <rect class="cls-1" x="0" y="0" width="512" height="579.75"/>
    </clipPath>
  </defs>
  <rect class="cls-2" x="-49.34" y="-36.25" width="639.11" height="658.67"/>
  <g class="cls-4">
    <g>
      <g id="_Grid_Repeat_" data-name="&amp;lt;Grid Repeat&amp;gt;">
        <polygon class="cls-3" points="-127.87 -64.1 -63.77 -128.2 .33 -64.1 .33 0 -63.77 -64.1 -127.87 0 -127.87 -64.1"/>
      </g>
      <g id="_Grid_Repeat_-2" data-name="&amp;lt;Grid Repeat&amp;gt;">
        <polygon class="cls-3" points=".33 -64.1 64.44 -128.2 128.54 -64.1 128.54 0 64.44 -64.1 .33 0 .33 -64.1"/>
      </g>
      <g id="_Grid_Repeat_-3" data-name="&amp;lt;Grid Repeat&amp;gt;">
        <polygon class="cls-3" points="128.54 -64.1 192.64 -128.2 256.74 -64.1 256.74 0 192.64 -64.1 128.54 0 128.54 -64.1"/>
      </g>
      <g id="_Grid_Repeat_-4" data-name="&amp;lt;Grid Repeat&amp;gt;">
        <polygon class="cls-3" points="256.74 -64.1 320.84 -128.2 384.94 -64.1 384.94 0 320.84 -64.1 256.74 0 256.74 -64.1"/>
      </g>
      <g id="_Grid_Repeat_-5" data-name="&amp;lt;Grid Repeat&amp;gt;">
        <polygon class="cls-3" points="384.94 -64.1 449.04 -128.2 513.14 -64.1 513.14 0 449.04 -64.1 384.94 0 384.94 -64.1"/>
      </g>
      <g id="_Grid_Repeat_-6" data-name="&amp;lt;Grid Repeat&amp;gt;">
        <polygon class="cls-3" points="-127.87 64.1 -63.77 0 .33 64.1 .33 128.2 -63.77 64.1 -127.87 128.2 -127.87 64.1"/>
      </g>
      <g id="_Grid_Repeat_-7" data-name="&amp;lt;Grid Repeat&amp;gt;">
        <polygon class="cls-3" points=".33 64.1 64.44 0 128.54 64.1 128.54 128.2 64.44 64.1 .33 128.2 .33 64.1"/>
      </g>
      <g id="_Grid_Repeat_-8" data-name="&amp;lt;Grid Repeat&amp;gt;">
        <polygon class="cls-3" points="128.54 64.1 192.64 0 256.74 64.1 256.74 128.2 192.64 64.1 128.54 128.2 128.54 64.1"/>
      </g>
      <g id="_Grid_Repeat_-9" data-name="&amp;lt;Grid Repeat&amp;gt;">
        <polygon class="cls-3" points="256.74 64.1 320.84 0 384.94 64.1 384.94 128.2 320.84 64.1 256.74 128.2 256.74 64.1"/>
      </g>
      <g id="_Grid_Repeat_-10" data-name="&amp;lt;Grid Repeat&amp;gt;">
        <polygon class="cls-3" points="384.94 64.1 449.04 0 513.14 64.1 513.14 128.2 449.04 64.1 384.94 128.2 384.94 64.1"/>
      </g>
      <g id="_Grid_Repeat_-11" data-name="&amp;lt;Grid Repeat&amp;gt;">
        <polygon class="cls-3" points="-127.87 192.3 -63.77 128.2 .33 192.3 .33 256.4 -63.77 192.3 -127.87 256.4 -127.87 192.3"/>
      </g>
      <g id="_Grid_Repeat_-12" data-name="&amp;lt;Grid Repeat&amp;gt;">
        <polygon class="cls-3" points=".33 192.3 64.44 128.2 128.54 192.3 128.54 256.4 64.44 192.3 .33 256.4 .33 192.3"/>
      </g>
      <g id="_Grid_Repeat_-13" data-name="&amp;lt;Grid Repeat&amp;gt;">
        <polygon class="cls-3" points="128.54 192.3 192.64 128.2 256.74 192.3 256.74 256.4 192.64 192.3 128.54 256.4 128.54 192.3"/>
      </g>
      <g id="_Grid_Repeat_-14" data-name="&amp;lt;Grid Repeat&amp;gt;">
        <polygon class="cls-3" points="256.74 192.3 320.84 128.2 384.94 192.3 384.94 256.4 320.84 192.3 256.74 256.4 256.74 192.3"/>
      </g>
      <g id="_Grid_Repeat_-15" data-name="&amp;lt;Grid Repeat&amp;gt;">
        <polygon class="cls-3" points="384.94 192.3 449.04 128.2 513.14 192.3 513.14 256.4 449.04 192.3 384.94 256.4 384.94 192.3"/>
      </g>
      <g id="_Grid_Repeat_-16" data-name="&amp;lt;Grid Repeat&amp;gt;">
        <polygon class="cls-3" points="-127.87 320.5 -63.77 256.4 .33 320.5 .33 384.61 -63.77 320.5 -127.87 384.61 -127.87 320.5"/>
      </g>
      <g id="_Grid_Repeat_-17" data-name="&amp;lt;Grid Repeat&amp;gt;">
        <polygon class="cls-3" points=".33 320.5 64.44 256.4 128.54 320.5 128.54 384.61 64.44 320.5 .33 384.61 .33 320.5"/>
      </g>
      <g id="_Grid_Repeat_-18" data-name="&amp;lt;Grid Repeat&amp;gt;">
        <polygon class="cls-3" points="128.54 320.5 192.64 256.4 256.74 320.5 256.74 384.61 192.64 320.5 128.54 384.61 128.54 320.5"/>
      </g>
      <g id="_Grid_Repeat_-19" data-name="&amp;lt;Grid Repeat&amp;gt;">
        <polygon class="cls-3" points="256.74 320.5 320.84 256.4 384.94 320.5 384.94 384.61 320.84 320.5 256.74 384.61 256.74 320.5"/>
      </g>
      <g id="_Grid_Repeat_-20" data-name="&amp;lt;Grid Repeat&amp;gt;">
        <polygon class="cls-3" points="384.94 320.5 449.04 256.4 513.14 320.5 513.14 384.61 449.04 320.5 384.94 384.61 384.94 320.5"/>
      </g>
      <g id="_Grid_Repeat_-21" data-name="&amp;lt;Grid Repeat&amp;gt;">
        <polygon class="cls-3" points="-127.87 448.71 -63.77 384.61 .33 448.71 .33 512.81 -63.77 448.71 -127.87 512.81 -127.87 448.71"/>
      </g>
      <g id="_Grid_Repeat_-22" data-name="&amp;lt;Grid Repeat&amp;gt;">
        <polygon class="cls-3" points=".33 448.71 64.44 384.61 128.54 448.71 128.54 512.81 64.44 448.71 .33 512.81 .33 448.71"/>
      </g>
      <g id="_Grid_Repeat_-23" data-name="&amp;lt;Grid Repeat&amp;gt;">
        <polygon class="cls-3" points="128.54 448.71 192.64 384.61 256.74 448.71 256.74 512.81 192.64 448.71 128.54 512.81 128.54 448.71"/>
      </g>
      <g id="_Grid_Repeat_-24" data-name="&amp;lt;Grid Repeat&amp;gt;">
        <polygon class="cls-3" points="256.74 448.71 320.84 384.61 384.94 448.71 384.94 512.81 320.84 448.71 256.74 512.81 256.74 448.71"/>
      </g>
      <g id="_Grid_Repeat_-25" data-name="&amp;lt;Grid Repeat&amp;gt;">
        <polygon class="cls-3" points="384.94 448.71 449.04 384.61 513.14 448.71 513.14 512.81 449.04 448.71 384.94 512.81 384.94 448.71"/>
      </g>
    </g>
  </g>
</svg>