<svg width="512" height="512" viewBox="0 0 512 512" fill="none" xmlns="http://www.w3.org/2000/svg">
<g clip-path="url(#clip0_6_18)">
<mask id="path-1-inside-1_6_18" fill="white">
<path d="M512 74.999V437.078L437.078 512H75L0 437V75.0771L75.0771 0H437.001L512 74.999Z"/>
</mask>
<path d="M512 74.999H551V58.8447L539.577 47.4219L512 74.999ZM512 437.078L539.577 464.655L551 453.232V437.078H512ZM437.078 512V551H453.232L464.655 539.577L437.078 512ZM75 512L47.4228 539.577L58.8457 551H75V512ZM0 437H-39V453.154L-27.5772 464.577L0 437ZM0 75.0771L-27.5772 47.5L-39 58.9228V75.0771H0ZM75.0771 0V-39H58.9228L47.5 -27.5772L75.0771 0ZM437.001 0L464.578 -27.5772L453.155 -39H437.001V0ZM512 74.999H473V437.078H512H551V74.999H512ZM512 437.078L484.423 409.501L409.501 484.423L437.078 512L464.655 539.577L539.577 464.655L512 437.078ZM437.078 512V473H75V512V551H437.078V512ZM75 512L102.577 484.423L27.5772 409.423L0 437L-27.5772 464.577L47.4228 539.577L75 512ZM0 437H39V75.0771H0H-39V437H0ZM0 75.0771L27.5772 102.654L102.654 27.5772L75.0771 0L47.5 -27.5772L-27.5772 47.5L0 75.0771ZM75.0771 0V39H437.001V0V-39H75.0771V0ZM437.001 0L409.424 27.5772L484.423 102.576L512 74.999L539.577 47.4219L464.578 -27.5772L437.001 0Z" fill="white" mask="url(#path-1-inside-1_6_18)"/>
<path d="M172.078 400V367.2H251.278V138L172.078 197.2V157.2L238.078 108H287.278V367.2H352.078V400H172.078Z" fill="white"/>
</g>
<defs>
<clipPath id="clip0_6_18">
<rect width="512" height="512" fill="white"/>
</clipPath>
</defs>
</svg>
