<svg width="512" height="512" viewBox="0 0 512 512" fill="none" xmlns="http://www.w3.org/2000/svg">
<g clip-path="url(#clip0_6_18)">
<mask id="path-1-inside-1_6_18" fill="white">
<path d="M512 74.999V437.078L437.078 512H75L0 437V75.0771L75.0771 0H437.001L512 74.999Z"/>
</mask>
<path d="M512 74.999H551V58.8447L539.577 47.4219L512 74.999ZM512 437.078L539.577 464.655L551 453.232V437.078H512ZM437.078 512V551H453.232L464.655 539.577L437.078 512ZM75 512L47.4228 539.577L58.8457 551H75V512ZM0 437H-39V453.154L-27.5772 464.577L0 437ZM0 75.0771L-27.5772 47.5L-39 58.9228V75.0771H0ZM75.0771 0V-39H58.9228L47.5 -27.5772L75.0771 0ZM437.001 0L464.578 -27.5772L453.155 -39H437.001V0ZM512 74.999H473V437.078H512H551V74.999H512ZM512 437.078L484.423 409.501L409.501 484.423L437.078 512L464.655 539.577L539.577 464.655L512 437.078ZM437.078 512V473H75V512V551H437.078V512ZM75 512L102.577 484.423L27.5772 409.423L0 437L-27.5772 464.577L47.4228 539.577L75 512ZM0 437H39V75.0771H0H-39V437H0ZM0 75.0771L27.5772 102.654L102.654 27.5772L75.0771 0L47.5 -27.5772L-27.5772 47.5L0 75.0771ZM75.0771 0V39H437.001V0V-39H75.0771V0ZM437.001 0L409.424 27.5772L484.423 102.576L512 74.999L539.577 47.4219L464.578 -27.5772L437.001 0Z" fill="white" mask="url(#path-1-inside-1_6_18)"/>
<path d="M172.878 400V363.2L262.078 268.4C277.278 252.133 288.345 237.733 295.278 225.2C302.211 212.4 305.678 200.133 305.678 188.4C305.678 172.133 301.145 159.333 292.078 150C283.278 140.667 271.145 136 255.678 136C238.611 136 225.145 140.8 215.278 150.4C205.678 160 200.878 173.2 200.878 190H164.878C165.411 172.4 169.411 157.2 176.878 144.4C184.611 131.333 195.145 121.333 208.478 114.4C222.078 107.467 237.811 104 255.678 104C273.278 104 288.478 107.467 301.278 114.4C314.345 121.067 324.345 130.667 331.278 143.2C338.211 155.733 341.678 170.667 341.678 188C341.678 204.533 337.278 220.933 328.478 237.2C319.678 253.467 305.278 272 285.278 292.8L213.278 367.2H346.478V400H172.878Z" fill="white"/>
</g>
<defs>
<clipPath id="clip0_6_18">
<rect width="512" height="512" fill="white"/>
</clipPath>
</defs>
</svg>
