<svg width="512" height="512" viewBox="0 0 512 512" fill="none" xmlns="http://www.w3.org/2000/svg">
<g clip-path="url(#clip0_6_18)">
<mask id="path-1-inside-1_6_18" fill="white">
<path d="M512 74.999V437.078L437.078 512H75L0 437V75.0771L75.0771 0H437.001L512 74.999Z"/>
</mask>
<path d="M512 74.999H551V58.8447L539.577 47.4219L512 74.999ZM512 437.078L539.577 464.655L551 453.232V437.078H512ZM437.078 512V551H453.232L464.655 539.577L437.078 512ZM75 512L47.4228 539.577L58.8457 551H75V512ZM0 437H-39V453.154L-27.5772 464.577L0 437ZM0 75.0771L-27.5772 47.5L-39 58.9228V75.0771H0ZM75.0771 0V-39H58.9228L47.5 -27.5772L75.0771 0ZM437.001 0L464.578 -27.5772L453.155 -39H437.001V0ZM512 74.999H473V437.078H512H551V74.999H512ZM512 437.078L484.423 409.501L409.501 484.423L437.078 512L464.655 539.577L539.577 464.655L512 437.078ZM437.078 512V473H75V512V551H437.078V512ZM75 512L102.577 484.423L27.5772 409.423L0 437L-27.5772 464.577L47.4228 539.577L75 512ZM0 437H39V75.0771H0H-39V437H0ZM0 75.0771L27.5772 102.654L102.654 27.5772L75.0771 0L47.5 -27.5772L-27.5772 47.5L0 75.0771ZM75.0771 0V39H437.001V0V-39H75.0771V0ZM437.001 0L409.424 27.5772L484.423 102.576L512 74.999L539.577 47.4219L464.578 -27.5772L437.001 0Z" fill="white" mask="url(#path-1-inside-1_6_18)"/>
<path d="M251.678 404C234.078 404 218.611 400.533 205.278 393.6C192.211 386.4 182.078 376.533 174.878 364C167.678 351.467 164.078 336.8 164.078 320H200.078C200.078 336.267 204.611 349.067 213.678 358.4C223.011 367.467 235.811 372 252.078 372C268.611 372 281.411 367.2 290.478 357.6C299.545 348 304.078 335.467 304.078 320V299.2C304.078 282.667 299.545 269.867 290.478 260.8C281.411 251.733 268.611 247.2 252.078 247.2H222.078V211.2L294.478 140.8H176.078V108H330.878V144L252.878 219.6V215.2C279.545 215.2 300.745 222.8 316.478 238C332.211 253.2 340.078 273.6 340.078 299.2V320C340.078 336.8 336.345 351.467 328.878 364C321.678 376.533 311.411 386.4 298.078 393.6C284.745 400.533 269.278 404 251.678 404Z" fill="white"/>
</g>
<defs>
<clipPath id="clip0_6_18">
<rect width="512" height="512" fill="white"/>
</clipPath>
</defs>
</svg>
